<svg xmlns="http://www.w3.org/2000/svg" viewBox="0 0 18.49 19.92"><defs><style>.cls-1{fill:#fff;}.cls-1,.cls-2{fill-rule:evenodd;}.cls-2{fill:#2c2c2d;}</style></defs><g id="Layer_2" data-name="Layer 2"><g id="Layer_1-2" data-name="Layer 1"><path class="cls-1" d="M16.64,1.64V.92A.92.92,0,0,0,15.72,0H13.39a.92.92,0,0,0-.92.92h0v.51H3a2.92,2.92,0,0,0-3,3V16.91a2.92,2.92,0,0,0,3,3H15.48a2.92,2.92,0,0,0,3-3V4.45a3,3,0,0,0-1.84-2.81"/><path class="cls-2" d="M11.12,14.69a.55.55,0,0,0-.69-.36h0A3.84,3.84,0,1,1,9.24,6.84,3.66,3.66,0,0,1,10.43,7a.55.55,0,0,0,.69-.36l.48-1.45a.55.55,0,0,0-.36-.69,6.16,6.16,0,0,0-2-.32,6.47,6.47,0,0,0,0,12.94,6.38,6.38,0,0,0,2-.32.55.55,0,0,0,.36-.69h0l-.48-1.45"/><path class="cls-2" d="M7.27,14.68,6.8,16.13h0a.54.54,0,0,0,.35.69,6.47,6.47,0,1,0,0-12.3.54.54,0,0,0-.35.69l.47,1.45A.57.57,0,0,0,8,7a3.64,3.64,0,0,1,1.18-.19A3.84,3.84,0,1,1,8,14.33H8a.55.55,0,0,0-.69.36"/></g></g></svg>