<svg xmlns="http://www.w3.org/2000/svg" viewBox="0 0 29.58 31.87"><defs><style>.cls-1{fill:#ee333d;}.cls-1,.cls-2{fill-rule:evenodd;}.cls-2{fill:#fff;}</style></defs><g id="Layer_2" data-name="Layer 2"><g id="Layer_1-2" data-name="Layer 1"><path class="cls-1" d="M26.63,2.62V1.48A1.48,1.48,0,0,0,25.15,0H21.43A1.47,1.47,0,0,0,20,1.47h0V2.3H4.82A4.68,4.68,0,0,0,0,7.12V27.05a4.68,4.68,0,0,0,4.82,4.82H24.76a4.68,4.68,0,0,0,4.82-4.82V7.12a4.8,4.8,0,0,0-2.95-4.5"/><path class="cls-2" d="M17.8,23.5a.87.87,0,0,0-1.11-.57h0a6.15,6.15,0,1,1-3.84-11.68,6.06,6.06,0,0,1,1.94-.31,6.18,6.18,0,0,1,1.9.3.88.88,0,0,0,1.11-.57l.76-2.32A.89.89,0,0,0,18,7.24a10.35,10.35,0,1,0-3.18,20.2A10.42,10.42,0,0,0,18,26.93a.87.87,0,0,0,.57-1.1v0l-.76-2.32"/><path class="cls-2" d="M11.66,23.49l-.75,2.32h0a.88.88,0,0,0,.57,1.11,10.35,10.35,0,1,0,3.2-20.2,10.59,10.59,0,0,0-3.2.5.89.89,0,0,0-.56,1.12l.75,2.32a.88.88,0,0,0,1.11.56,6.23,6.23,0,0,1,3.85,0,6.15,6.15,0,1,1-3.85,11.68h0a.89.89,0,0,0-1.11.57"/></g></g></svg>